HIERARCHY
ROOT Hips
{
	OFFSET 0.000000 71.427986 0.000000
	CHANNELS 6 Xposition Yposition Zposition Xrotation Yrotation Zrotation
	JOINT Pelvis
	{
		OFFSET 0.000000 0.000000 0.000000
		CHANNELS 3 Xrotation Yrotation Zrotation
		JOINT LeftUpLeg
		{
			OFFSET 6.797100 -2.508499 -1.318700
			CHANNELS 3 Xrotation Yrotation Zrotation
			JOINT LeftLeg
			{
				OFFSET 0.069008 -29.241863 0.690200
				CHANNELS 3 Xrotation Yrotation Zrotation
				JOINT LeftFoot
				{
					OFFSET -0.069008 -29.568123 -0.266800
					CHANNELS 3 Xrotation Yrotation Zrotation
					JOINT LeftToeBase
					{
						OFFSET 3.145500 -8.631000 16.059900
						CHANNELS 3 Xrotation Yrotation Zrotation
						End Site
						{
							OFFSET 0.000000 18.501587 0.000000
						}
					}
				}
			}
			JOINT Left_ShortSleeve
			{
				OFFSET 0.265923 -10.480953 1.153800
				CHANNELS 3 Xrotation Yrotation Zrotation
				End Site
				{
					OFFSET 1.725763 19.823879 0.000000
				}
			}
		}
		JOINT RightUpLeg
		{
			OFFSET -6.797100 -2.508499 -1.318700
			CHANNELS 3 Xrotation Yrotation Zrotation
			JOINT RightLeg
			{
				OFFSET -0.082453 -29.241932 0.688000
				CHANNELS 3 Xrotation Yrotation Zrotation
				JOINT RightFoot
				{
					OFFSET 0.082453 -29.568058 -0.264600
					CHANNELS 3 Xrotation Yrotation Zrotation
					JOINT RightToeBase
					{
						OFFSET -3.115300 -8.682800 16.113400
						CHANNELS 3 Xrotation Yrotation Zrotation
						End Site
						{
							OFFSET 0.000000 18.567114 0.000000
						}
					}
				}
			}
			JOINT Right_ShortSleeve
			{
				OFFSET -0.265923 -10.480953 1.153800
				CHANNELS 3 Xrotation Yrotation Zrotation
				End Site
				{
					OFFSET -1.725766 19.823910 0.000000
				}
			}
		}
	}
	JOINT Spine
	{
		OFFSET 0.000000 13.368103 0.470500
		CHANNELS 3 Xrotation Yrotation Zrotation
		JOINT Spine1
		{
			OFFSET 0.147000 13.837402 0.538800
			CHANNELS 3 Xrotation Yrotation Zrotation
			JOINT Spine2
			{
				OFFSET 0.168000 16.242897 -1.435500
				CHANNELS 3 Xrotation Yrotation Zrotation
				JOINT Neck
				{
					OFFSET 0.217200 18.631500 -1.679100
					CHANNELS 3 Xrotation Yrotation Zrotation
					JOINT Head
					{
						OFFSET 0.000000 6.599396 1.385900
						CHANNELS 3 Xrotation Yrotation Zrotation
						JOINT Hat
						{
							OFFSET -0.532200 27.220596 -10.096100
							CHANNELS 3 Xrotation Yrotation Zrotation
							End Site
							{
								OFFSET 0.000000 22.029861 0.000000
							}
						}
						JOINT HairD
						{
							OFFSET -10.777400 17.437393 -1.325900
							CHANNELS 3 Xrotation Yrotation Zrotation
							JOINT HairD1
							{
								OFFSET -3.290299 -11.051193 1.062200
								CHANNELS 3 Xrotation Yrotation Zrotation
								End Site
								{
									OFFSET 0.000000 11.579437 0.000000
								}
							}
						}
						JOINT HairB
						{
							OFFSET -10.777400 17.437393 1.467900
							CHANNELS 3 Xrotation Yrotation Zrotation
							JOINT HairB1
							{
								OFFSET -1.561200 -12.956299 3.590200
								CHANNELS 3 Xrotation Yrotation Zrotation
								End Site
								{
									OFFSET 0.000000 13.534866 0.000000
								}
							}
						}
						JOINT HairA
						{
							OFFSET 9.713100 17.437393 1.467900
							CHANNELS 3 Xrotation Yrotation Zrotation
							JOINT HairA1
							{
								OFFSET 1.561200 -12.956299 3.590200
								CHANNELS 3 Xrotation Yrotation Zrotation
								End Site
								{
									OFFSET 0.000000 13.534866 0.000000
								}
							}
						}
						JOINT HairC
						{
							OFFSET 9.713100 17.437393 -1.325900
							CHANNELS 3 Xrotation Yrotation Zrotation
							JOINT HairC1
							{
								OFFSET 3.290300 -11.051193 1.062200
								CHANNELS 3 Xrotation Yrotation Zrotation
								End Site
								{
									OFFSET 0.000000 11.579437 0.000000
								}
							}
						}
					}
				}
				JOINT LeftShoulder
				{
					OFFSET 5.101800 15.108002 -2.763700
					CHANNELS 3 Xrotation Yrotation Zrotation
					JOINT LeftArm
					{
						OFFSET 9.825497 2.506317 -1.597400
						CHANNELS 3 Xrotation Yrotation Zrotation
						JOINT LeftForeArm
						{
							OFFSET 21.966244 0.000000 0.000000
							CHANNELS 3 Xrotation Yrotation Zrotation
							JOINT LeftHand
							{
								OFFSET 33.879036 0.000000 0.000000
								CHANNELS 3 Xrotation Yrotation Zrotation
								JOINT LeftHandThumb1
								{
									OFFSET 6.715286 -2.359680 3.363841
									CHANNELS 3 Xrotation Yrotation Zrotation
									JOINT LeftHandThumb2
									{
										OFFSET 2.507072 -1.447464 1.447461
										CHANNELS 3 Xrotation Yrotation Zrotation
										JOINT LeftHandThumb3
										{
											OFFSET 2.898338 -1.673355 1.673357
											CHANNELS 3 Xrotation Yrotation Zrotation
											End Site
											{
												OFFSET -0.295959 3.727692 -0.131651
											}
										}
									}
								}
								JOINT LeftHandIndex1
								{
									OFFSET 14.190811 -0.254547 3.840278
									CHANNELS 3 Xrotation Yrotation Zrotation
									JOINT LeftHandIndex2
									{
										OFFSET 3.551727 0.000000 -0.000000
										CHANNELS 3 Xrotation Yrotation Zrotation
										JOINT LeftHandIndex3
										{
											OFFSET 2.894196 0.000000 0.000000
											CHANNELS 3 Xrotation Yrotation Zrotation
											End Site
											{
												OFFSET -1.000603 2.690872 0.366626
											}
										}
									}
								}
								JOINT LeftHandMiddle1
								{
									OFFSET 13.776489 0.000000 0.000000
									CHANNELS 3 Xrotation Yrotation Zrotation
									JOINT LeftHandMiddle2
									{
										OFFSET 3.438232 0.000000 0.000000
										CHANNELS 3 Xrotation Yrotation Zrotation
										JOINT LeftHandMiddle3
										{
											OFFSET 3.691551 0.000000 0.000000
											CHANNELS 3 Xrotation Yrotation Zrotation
											End Site
											{
												OFFSET -1.082298 3.499527 0.457670
											}
										}
									}
								}
								JOINT LeftHandRing1
								{
									OFFSET 13.966164 -0.268127 -3.067488
									CHANNELS 3 Xrotation Yrotation Zrotation
									JOINT LeftHandRing2
									{
										OFFSET 3.162567 0.000000 0.000000
										CHANNELS 3 Xrotation Yrotation Zrotation
										JOINT LeftHandRing3
										{
											OFFSET 3.324348 0.000000 0.000000
											CHANNELS 3 Xrotation Yrotation Zrotation
											End Site
											{
												OFFSET -0.861900 3.184998 0.405154
											}
										}
									}
								}
								JOINT LeftHandPinky1
								{
									OFFSET 13.131393 -0.168503 -5.746925
									CHANNELS 3 Xrotation Yrotation Zrotation
									JOINT LeftHandPinky2
									{
										OFFSET 2.849182 0.000000 0.000000
										CHANNELS 3 Xrotation Yrotation Zrotation
										JOINT LeftHandPinky3
										{
											OFFSET 2.805038 0.000000 0.000000
											CHANNELS 3 Xrotation Yrotation Zrotation
											End Site
											{
												OFFSET -0.882500 2.642609 0.325652
											}
										}
									}
								}
							}
							JOINT Left_Sleeve
							{
								OFFSET 6.592125 -0.646545 0.805568
								CHANNELS 3 Xrotation Yrotation Zrotation
								End Site
								{
									OFFSET -0.000179 20.275787 -0.000000
								}
							}
						}
					}
				}
				JOINT RightShoulder
				{
					OFFSET -5.731700 15.108002 -2.763700
					CHANNELS 3 Xrotation Yrotation Zrotation
					JOINT RightArm
					{
						OFFSET -9.825497 2.506317 -1.597400
						CHANNELS 3 Xrotation Yrotation Zrotation
						JOINT RightForeArm
						{
							OFFSET -21.966242 0.000000 0.000000
							CHANNELS 3 Xrotation Yrotation Zrotation
							JOINT RightHand
							{
								OFFSET -33.879032 0.000000 0.000000
								CHANNELS 3 Xrotation Yrotation Zrotation
								JOINT RightHandThumb1
								{
									OFFSET -6.715286 -2.359680 3.363841
									CHANNELS 3 Xrotation Yrotation Zrotation
									JOINT RightHandThumb2
									{
										OFFSET -2.507072 -1.447464 1.447461
										CHANNELS 3 Xrotation Yrotation Zrotation
										JOINT RightHandThumb3
										{
											OFFSET -2.898338 -1.673355 1.673357
											CHANNELS 3 Xrotation Yrotation Zrotation
											End Site
											{
												OFFSET 0.295959 3.727692 -0.131651
											}
										}
									}
								}
								JOINT RightHandIndex1
								{
									OFFSET -14.190811 -0.254547 3.840278
									CHANNELS 3 Xrotation Yrotation Zrotation
									JOINT RightHandIndex2
									{
										OFFSET -3.551727 0.000000 -0.000000
										CHANNELS 3 Xrotation Yrotation Zrotation
										JOINT RightHandIndex3
										{
											OFFSET -2.894196 0.000000 0.000000
											CHANNELS 3 Xrotation Yrotation Zrotation
											End Site
											{
												OFFSET 1.000603 2.690872 0.366626
											}
										}
									}
								}
								JOINT RightHandMiddle1
								{
									OFFSET -13.776489 0.000000 0.000000
									CHANNELS 3 Xrotation Yrotation Zrotation
									JOINT RightHandMiddle2
									{
										OFFSET -3.438232 0.000000 0.000000
										CHANNELS 3 Xrotation Yrotation Zrotation
										JOINT RightHandMiddle3
										{
											OFFSET -3.691551 0.000000 0.000000
											CHANNELS 3 Xrotation Yrotation Zrotation
											End Site
											{
												OFFSET 1.082298 3.499527 0.457670
											}
										}
									}
								}
								JOINT RightHandRing1
								{
									OFFSET -13.966164 -0.268127 -3.067488
									CHANNELS 3 Xrotation Yrotation Zrotation
									JOINT RightHandRing2
									{
										OFFSET -3.162567 0.000000 0.000000
										CHANNELS 3 Xrotation Yrotation Zrotation
										JOINT RightHandRing3
										{
											OFFSET -3.324348 0.000000 0.000000
											CHANNELS 3 Xrotation Yrotation Zrotation
											End Site
											{
												OFFSET 0.861900 3.184998 0.405154
											}
										}
									}
								}
								JOINT RightHandPinky1
								{
									OFFSET -13.131393 -0.168503 -5.746925
									CHANNELS 3 Xrotation Yrotation Zrotation
									JOINT RightHandPinky2
									{
										OFFSET -2.849182 0.000000 0.000000
										CHANNELS 3 Xrotation Yrotation Zrotation
										JOINT RightHandPinky3
										{
											OFFSET -2.805038 0.000000 0.000000
											CHANNELS 3 Xrotation Yrotation Zrotation
											End Site
											{
												OFFSET 0.882500 2.642609 0.325652
											}
										}
									}
								}
							}
							JOINT Right_Sleeve
							{
								OFFSET -6.592125 -0.646545 0.805568
								CHANNELS 3 Xrotation Yrotation Zrotation
								End Site
								{
									OFFSET 0.000179 20.275787 -0.000000
								}
							}
						}
					}
				}
				JOINT Bind_Right_JacketString
				{
					OFFSET -3.534800 11.969597 7.200700
					CHANNELS 3 Xrotation Yrotation Zrotation
					JOINT Bind_Right_JacketString1
					{
						OFFSET -0.319900 -6.102600 2.794100
						CHANNELS 3 Xrotation Yrotation Zrotation
						End Site
						{
							OFFSET 0.000000 6.719452 0.000000
						}
					}
				}
				JOINT Bind_Left_JacketString
				{
					OFFSET 2.904800 11.969597 7.200700
					CHANNELS 3 Xrotation Yrotation Zrotation
					JOINT Bind_Left_JacketString1
					{
						OFFSET 0.364800 -5.904503 3.186800
						CHANNELS 3 Xrotation Yrotation Zrotation
						End Site
						{
							OFFSET 0.000000 6.719513 0.000000
						}
					}
				}
				JOINT HairE
				{
					OFFSET 5.915200 17.612701 -11.592200
					CHANNELS 3 Xrotation Yrotation Zrotation
					JOINT HairE1
					{
						OFFSET 0.289200 -7.171898 -1.284500
						CHANNELS 3 Xrotation Yrotation Zrotation
						End Site
						{
							OFFSET 0.000000 7.291756 0.000000
						}
					}
				}
				JOINT HairF
				{
					OFFSET -0.864800 17.612701 -11.592200
					CHANNELS 3 Xrotation Yrotation Zrotation
					JOINT HairF1
					{
						OFFSET 0.000000 -14.087097 -2.127501
						CHANNELS 3 Xrotation Yrotation Zrotation
						End Site
						{
							OFFSET 0.000000 14.246841 0.000000
						}
					}
				}
				JOINT HairG
				{
					OFFSET -8.087700 17.612701 -11.592200
					CHANNELS 3 Xrotation Yrotation Zrotation
					JOINT HairG1
					{
						OFFSET -0.293600 -6.081398 -0.910100
						CHANNELS 3 Xrotation Yrotation Zrotation
						End Site
						{
							OFFSET 0.000000 6.156120 0.000000
						}
					}
				}
			}
		}
	}
	JOINT Pouch
	{
		OFFSET 0.000000 4.394501 10.847300
		CHANNELS 3 Xrotation Yrotation Zrotation
		End Site
		{
			OFFSET 0.000000 21.880577 0.000000
		}
	}
	JOINT Bag
	{
		OFFSET -13.229000 4.813004 -0.593300
		CHANNELS 3 Xrotation Yrotation Zrotation
		End Site
		{
			OFFSET 0.000000 21.880577 0.000000
		}
	}
	JOINT OccupyGuyFacialAnim_Joint
	{
		OFFSET 1.000000 -70.206398 -1.655000
		CHANNELS 3 Xrotation Yrotation Zrotation
		End Site
		{
			OFFSET 0.000000 21.880577 0.000000
		}
	}
}
MOTION
Frames: 4
Frame Time: 0.033333
4.542427 68.088295 2.468506 3.328163 -55.168770 -2.020126 -0.000000 -0.000001 0.000000 -28.551545 8.529866 18.846572 26.463032 9.714998 0.529395 2.317413 9.914746 -9.145010 -0.000000 -0.000000 -0.000000 0.000002 -0.000001 0.000001 -12.132229 -12.084059 -11.707057 17.864210 8.884010 -0.863961 -5.919080 -11.218663 13.954037 -0.000000 0.000000 -0.000000 -0.000000 0.000001 0.000000 2.601735 7.063033 2.523209 2.705667 8.030728 -0.322241 2.792159 8.017139 -0.510232 12.364370 6.782372 -4.752443 5.657519 23.458560 1.276289 -0.000001 0.000000 -0.000001 -0.000001 0.000000 -0.000001 -0.000001 0.000000 -0.000001 -0.000001 0.000000 -0.000001 -0.000001 -0.000000 -0.000000 -0.000001 0.000000 -0.000001 -0.000001 -0.000000 -0.000000 -0.000001 0.000000 -0.000001 -0.000001 0.000000 -0.000001 3.869498 4.963156 -12.641716 -52.469151 -31.692788 -49.608839 0.000240 -84.185483 0.000244 -58.541517 26.336743 41.190607 -14.557471 10.837955 12.229969 0.749521 -4.257938 13.305465 0.000001 0.000001 0.000001 -0.809533 2.578185 -31.496427 3.095894 5.163749 -61.866966 0.000001 0.000000 -0.000002 -2.430840 1.729241 -41.460918 2.952351 5.084721 -60.259931 0.000001 -0.000000 0.000002 -6.054129 -0.166603 -49.857567 3.046256 5.137022 -61.313952 -0.000002 -0.000002 0.000002 -8.298301 -6.522636 -38.520139 2.848784 5.024380 -59.084415 -0.000001 -0.000002 0.000003 0.000000 0.000001 0.000001 -14.641304 2.478405 -4.402931 71.815143 138.352257 -51.461620 0.000005 28.974195 -0.000002 -49.882162 -7.482104 -29.785973 8.377139 -4.904154 11.021988 21.620212 -18.183893 -18.379218 -0.000000 -0.000001 -0.000000 0.558950 -4.406593 25.436680 1.653039 -3.560321 49.799087 -0.000001 0.000000 0.000000 10.969823 -12.875571 52.800846 6.387579 -4.324422 111.833665 0.000000 -0.000000 0.000001 3.705079 -7.151300 57.622454 5.328222 -4.608691 98.293423 -0.000000 0.000000 -0.000002 0.474829 -5.172991 58.987672 3.194322 -4.421938 71.674168 0.000000 0.000001 0.000001 -0.000001 0.000001 -0.000000 0.000001 0.000000 0.000000 0.000001 0.000000 0.000000 0.000001 0.000000 0.000000 0.000001 0.000000 0.000000 0.000001 0.000000 0.000000 0.000001 0.000000 0.000000 0.000001 0.000000 0.000000 0.000001 0.000000 0.000000 0.000001 0.000000 0.000000 0.000001 0.000000 0.000000 -0.000000 -0.000001 0.000000 -0.000000 -0.000001 0.000000 -0.000000 -0.000001 0.000000 
4.484807 68.152168 2.410457 3.279032 -55.055542 -2.088107 0.000000 0.000001 -0.000000 -28.421061 9.043573 19.014996 25.872789 9.658646 0.510220 2.572838 9.376794 -8.993846 -0.000000 -0.000002 -0.000000 -0.000000 -0.000001 0.000000 -11.828459 -12.369621 -11.549316 17.385898 8.852776 -0.912353 -5.725844 -11.101232 13.917155 0.000000 0.000000 -0.000000 -0.000000 0.000001 -0.000000 2.564174 7.065754 2.446061 2.678713 8.038562 -0.330566 2.765316 8.024665 -0.517623 12.352196 6.781930 -4.723249 5.119145 23.189331 1.835854 0.000000 0.000000 0.000000 0.000000 0.000000 0.000000 0.000000 0.000000 0.000001 0.000000 0.000000 0.000000 0.000000 0.000000 0.000001 0.000000 0.000000 0.000000 0.000000 0.000000 0.000001 0.000000 0.000000 0.000000 0.000000 0.000000 0.000000 3.916307 5.019302 -12.786830 -52.490386 -31.942599 -49.578687 0.001357 -83.890344 0.001355 -58.444173 26.344284 40.794060 -14.557467 10.837955 12.229972 0.749521 -4.257937 13.305465 -0.000000 0.000001 0.000000 -0.809534 2.578185 -31.496427 3.095893 5.163748 -61.866966 0.000001 0.000000 -0.000000 -2.430837 1.729241 -41.460922 2.952350 5.084721 -60.259931 -0.000000 0.000001 -0.000001 -6.054129 -0.166602 -49.857574 3.046257 5.137024 -61.313952 -0.000001 0.000000 -0.000002 -8.298300 -6.522635 -38.520146 2.848785 5.024376 -59.084422 0.000000 0.000001 0.000001 -0.000002 0.000005 -0.000003 -14.650233 2.461615 -4.427350 71.854410 138.438700 -51.386033 0.000002 28.737485 0.000002 -49.909210 -7.295317 -29.907090 8.377142 -4.904156 11.021985 21.620216 -18.183891 -18.379219 -0.000002 -0.000001 0.000002 0.558947 -4.406592 25.436675 1.653039 -3.560320 49.799090 0.000000 0.000000 -0.000001 10.969827 -12.875575 52.800846 6.387578 -4.324421 111.833665 -0.000000 0.000000 -0.000002 3.705078 -7.151301 57.622454 5.328222 -4.608689 98.293430 -0.000001 -0.000001 0.000005 0.474829 -5.172991 58.987672 3.194322 -4.421938 71.674168 0.000001 0.000001 0.000004 -0.000001 0.000001 0.000002 -0.000001 0.000003 -0.000001 0.000000 -0.000000 -0.000000 -0.000001 0.000003 -0.000001 -0.000001 0.000003 -0.000001 -0.000001 0.000003 -0.000001 0.000000 -0.000000 -0.000000 -0.000001 0.000003 -0.000001 -0.000001 0.000003 -0.000001 -0.000001 0.000003 -0.000001 0.000000 -0.000000 -0.000000 0.000000 0.000001 -0.000000 0.000000 0.000001 -0.000000 0.000000 0.000001 -0.000000 
4.419396 68.172844 2.353631 3.233452 -55.001171 -2.264742 -0.000000 -0.000001 -0.000000 -28.484438 9.374757 19.328568 25.707809 9.670010 0.492199 2.644489 8.878695 -8.926771 -0.000000 -0.000002 -0.000000 -0.000002 0.000000 0.000000 -11.665878 -12.602298 -11.333908 17.220237 8.800301 -0.905114 -5.696457 -10.935247 13.831642 0.000000 -0.000002 0.000000 -0.000000 -0.000002 0.000000 2.562243 7.028972 2.440612 2.673927 8.020260 -0.303851 2.762287 8.005696 -0.490333 12.320059 6.788792 -4.710523 4.416896 22.926059 2.377666 0.000000 -0.000000 -0.000000 0.000000 -0.000000 -0.000000 0.000000 -0.000000 0.000000 0.000000 -0.000000 0.000000 0.000000 -0.000000 0.000000 0.000000 -0.000000 0.000000 0.000000 -0.000000 0.000000 0.000000 -0.000000 -0.000000 0.000000 -0.000000 -0.000000 3.939997 5.135262 -12.857840 -52.551786 -31.971415 -49.637570 0.000479 -83.870953 0.000497 -58.424885 26.344260 40.643662 -14.557467 10.837952 12.229969 0.749521 -4.257935 13.305464 0.000001 -0.000000 -0.000001 -0.809533 2.578185 -31.496427 3.095894 5.163749 -61.866959 0.000000 -0.000000 -0.000000 -2.430839 1.729241 -41.460915 2.952348 5.084722 -60.259931 -0.000000 0.000000 0.000001 -6.054128 -0.166603 -49.857567 3.046258 5.137027 -61.313952 -0.000000 -0.000002 -0.000002 -8.298302 -6.522634 -38.520146 2.848786 5.024377 -59.084422 -0.000001 -0.000000 0.000001 -0.000001 -0.000004 0.000002 -14.670374 2.426179 -4.484765 71.649101 138.447169 -51.211102 0.000006 28.664460 -0.000001 -49.976723 -7.240373 -29.998689 8.377142 -4.904154 11.021990 21.620216 -18.183895 -18.379218 0.000001 0.000000 0.000002 0.558950 -4.406592 25.436680 1.653040 -3.560320 49.799090 -0.000001 -0.000001 0.000000 10.969826 -12.875573 52.800846 6.387578 -4.324420 111.833665 -0.000001 -0.000001 0.000003 3.705078 -7.151302 57.622454 5.328223 -4.608690 98.293430 0.000001 -0.000001 -0.000003 0.474829 -5.172991 58.987665 3.194324 -4.421938 71.674161 -0.000001 0.000000 0.000002 0.000000 0.000002 0.000001 0.000002 -0.000000 0.000000 0.000002 -0.000000 0.000000 0.000002 -0.000000 0.000000 0.000002 -0.000000 0.000000 0.000002 -0.000000 0.000000 0.000002 -0.000000 0.000000 0.000002 -0.000000 0.000000 0.000002 -0.000000 0.000000 0.000002 -0.000000 0.000000 0.000002 -0.000000 0.000000 -0.000000 -0.000001 -0.000000 -0.000000 -0.000001 -0.000000 -0.000000 -0.000001 -0.000000 
4.333590 68.148849 2.290083 3.161127 -55.013817 -2.507118 0.000000 -0.000002 -0.000000 -28.689670 9.562232 19.739170 25.928474 9.761752 0.476565 2.547970 8.409540 -8.952573 -0.000000 -0.000002 -0.000000 -0.000001 -0.000000 -0.000001 -11.716907 -12.749086 -11.098775 17.540754 8.796596 -0.921391 -5.918551 -10.805015 13.708664 -0.000000 0.000000 0.000000 0.000001 -0.000003 -0.000000 2.563081 7.020123 2.433460 2.675587 8.026702 -0.306402 2.764820 8.011687 -0.492657 12.278519 6.790713 -4.641373 3.686809 22.624109 3.135629 0.000001 0.000000 0.000000 0.000001 0.000000 0.000000 0.000001 0.000000 0.000001 0.000001 0.000000 -0.000000 0.000001 0.000000 -0.000000 0.000001 0.000000 -0.000000 0.000001 0.000000 -0.000000 0.000001 0.000000 0.000000 0.000001 0.000000 0.000000 3.898012 5.130926 -12.727118 -52.692010 -31.911317 -49.808185 -0.000381 -83.894380 -0.000362 -58.361439 26.432055 40.652039 -14.557467 10.837952 12.229969 0.749523 -4.257938 13.305466 -0.000004 0.000002 0.000001 -0.809535 2.578186 -31.496430 3.095894 5.163749 -61.866966 0.000000 0.000001 -0.000000 -2.430840 1.729242 -41.460915 2.952349 5.084723 -60.259931 -0.000000 0.000001 0.000004 -6.054129 -0.166602 -49.857567 3.046257 5.137024 -61.313952 -0.000002 0.000003 0.000003 -8.298302 -6.522636 -38.520146 2.848787 5.024379 -59.084422 -0.000000 0.000001 -0.000000 0.000002 -0.000003 -0.000001 -14.666127 2.408885 -4.447496 71.807418 138.458002 -51.382922 -0.000003 28.911706 0.000004 -49.909811 -7.351840 -30.091119 8.377141 -4.904155 11.021989 21.620214 -18.183895 -18.379219 0.000001 0.000000 0.000000 0.558948 -4.406593 25.436681 1.653039 -3.560321 49.799090 0.000001 -0.000001 0.000000 10.969823 -12.875573 52.800842 6.387578 -4.324420 111.833665 0.000002 -0.000002 0.000002 3.705077 -7.151302 57.622454 5.328221 -4.608690 98.293430 -0.000000 0.000000 -0.000004 0.474829 -5.172993 58.987665 3.194323 -4.421938 71.674161 -0.000000 0.000001 0.000001 0.000005 -0.000001 0.000000 -0.000000 -0.000000 0.000000 -0.000000 -0.000002 -0.000000 -0.000000 -0.000000 0.000000 -0.000000 -0.000000 0.000000 -0.000000 -0.000000 0.000000 -0.000000 -0.000002 -0.000000 -0.000000 -0.000000 0.000000 -0.000000 -0.000000 0.000000 -0.000000 -0.000000 0.000000 -0.000000 -0.000002 -0.000000 0.000000 -0.000002 -0.000000 0.000000 -0.000002 -0.000000 0.000000 -0.000002 -0.000000 
